<?xml version="1.0" encoding="utf-8"?>
<!-- Generator: Adobe Illustrator 16.0.0, SVG Export Plug-In . SVG Version: 6.00 Build 0)  -->
<!DOCTYPE svg PUBLIC "-//W3C//DTD SVG 1.1//EN" "http://www.w3.org/Graphics/SVG/1.1/DTD/svg11.dtd">
<svg version="1.1" id="Layer_1" xmlns="http://www.w3.org/2000/svg"  x="0px" y="0px"
	 width="331.216px" height="106.424px" viewBox="126.085 378.111 331.216 106.424"
	 enable-background="new 126.085 378.111 331.216 106.424" xml:space="preserve">
<path fill="#197B7E" d="M222.976,421.059c-6.921,0-14.294,2.98-14.294,10.951c0,3.834,1.342,7.924,8.77,9.816l9.22,2.344
	c2.786,0.697,3.487,2.291,3.487,3.738l0,0l0,0l0,0l0,0c0,2.381-2.339,4.729-6.575,4.729c-8.272,0-7.132-6.471-11.559-6.471
	c-2.001,0-3.441,1.391-3.441,3.393c0,3.879,4.633,9.064,15,9.064c9.857,0,14.732-4.836,14.732-11.314
	c0-4.188-1.886-8.623-9.362-10.313l-6.826-1.561c-2.583-0.584-5.581-1.385-5.581-3.877l0,0l0,0l0,0l0,0
	c0-2.479,2.098-4.23,5.886-4.23c7.633,0,6.922,5.342,10.71,5.342c1.997,0,3.739-1.203,3.739-3.25
	C236.879,424.636,229.352,421.059,222.976,421.059"/>
<g>
	<path fill="#197B7E" d="M277.962,421.058c-11.561,0-17.542,8.651-17.541,18.778c0,12.355,6.626,18.787,17.833,18.787
		c7.928,0,14.203-5.129,14.203-10.318c0-1.986-1.985-3.139-3.983-3.139c-3.934,0-3.788,6.871-10.22,6.871
		c-7.059,0-9.66-5.676-9.66-12.201l0,0l0,0l0,0l0,0c0-7.77,4.234-12.205,9.368-12.205c7.473,0,6.086,6.479,10.813,6.479
		c2.441,0,3.685-1.387,3.685-3.695C292.457,426.931,287.327,421.058,277.962,421.058"/>
</g>
<g>
	<path fill="#197B7E" d="M352.204,439.388L352.204,439.388c0-6.877,3.281-11.758,9.967-11.758c6.666,0,9.964,4.881,9.964,11.758l0,0
		l0,0l0,0l0,0c0,6.869-2.547,12.648-9.964,12.648C354.496,452.037,352.204,446.257,352.204,439.388L352.204,439.388L352.204,439.388
		L352.204,439.388 M362.171,421.058c-11.76,0-18.136,7.817-18.136,18.331c0,10.855,5.281,19.232,18.136,19.232
		c12.261,0,18.131-9.119,18.131-19.232C380.302,428.873,373.922,421.058,362.171,421.058"/>
</g>
<g>
	<path fill="#60CCCF" d="M155.774,432.21h-0.094l-7.634,23.805c-0.541,1.693-1.792,2.402-3.482,2.402
		c-1.688,0-2.938-0.709-3.487-2.402l-7.613-23.805h-0.117h0.117l7.613,23.805c0.552,1.693,1.802,2.402,3.487,2.402
		c1.69,0,2.941-0.709,3.482-2.402l7.634-23.805H155.774v48.34c0,2.039,0.996,3.984,3.64,3.984c2.641,0,3.641-1.945,3.641-3.984
		v-12.91c0,2.045-1,3.992-3.641,3.992c-2.644,0-3.64-1.947-3.64-3.992V432.21"/>
	<path fill="#24A3A8" d="M155.774,432.21h-0.094l-7.634,23.805c-0.541,1.693-1.792,2.402-3.482,2.402
		c-1.688,0-2.938-0.709-3.487-2.402l-7.613-23.805h-0.117h0.117l7.613,23.805c0.552,1.693,1.802,2.402,3.487,2.402
		c1.69,0,2.941-0.709,3.482-2.402l7.634-23.805H155.774v35.43c0,2.045,0.996,3.992,3.64,3.992c2.641,0,3.641-1.947,3.641-3.992
		v-12.914c0,2.051-1,3.992-3.641,3.992c-2.644,0-3.64-1.943-3.64-3.992V432.21"/>
	<path fill="#197B7E" d="M158.613,421.246h-2.396c-2.535,0-3.725,1.003-4.585,3.74l-7.11,23.021h-0.109l-7.021-23.021
		c-0.852-2.736-2.038-3.74-4.583-3.74h-2.284c-2.208,0-4.438,0.753-4.438,4.039v29.346c0,2.037,0.988,3.99,3.633,3.99
		c2.637,0,3.63-1.953,3.63-3.99v-22.42h0.117l7.613,23.805c0.552,1.693,1.802,2.402,3.487,2.402c1.69,0,2.941-0.709,3.482-2.402
		l7.634-23.805h0.094v22.516c0,2.049,0.996,3.992,3.64,3.992c2.641,0,3.641-1.941,3.641-3.992v-29.439
		C163.054,422,160.806,421.246,158.613,421.246"/>
</g>
<g>
	<path fill="#60CCCF" d="M300.339,425.285L300.339,425.285v55.266c0,2.039,0.991,3.984,3.645,3.984c2.633,0,3.629-1.945,3.629-3.984
		v-12.91c0,2.045-0.996,3.992-3.629,3.992c-2.651,0-3.645-1.947-3.645-3.992V425.285"/>
	<path fill="#24A3A8" d="M300.339,425.285L300.339,425.285v42.355c0,2.045,0.991,3.992,3.645,3.992c2.633,0,3.629-1.947,3.629-3.992
		v-12.914c0,2.047-0.996,3.992-3.629,3.992c-2.651,0-3.645-1.947-3.645-3.992V425.285"/>
	<path fill="#197B7E" d="M332.866,421.246h-2.287c-2.534,0-3.737,1.003-4.59,3.74l-7.016,23.021h-0.104l-7.121-23.021
		c-0.852-2.736-2.052-3.74-4.601-3.74h-2.378c-2.188,0-4.434,0.753-4.434,4.039h-0.001v29.441c0,2.045,0.991,3.992,3.645,3.992
		c2.633,0,3.629-1.945,3.629-3.992V432.21h0.105l7.616,23.805c0.538,1.693,1.798,2.402,3.488,2.402c1.695,0,2.934-0.709,3.479-2.402
		l7.627-23.805h0.1v22.42c0,2.037,0.997,3.99,3.641,3.99c2.646,0,3.64-1.953,3.64-3.99v-29.348
		C337.308,422,335.065,421.246,332.866,421.246"/>
</g>
<g>
	<path fill="#60CCCF" d="M198.581,398.472c-2.486,0-4.089,1.65-4.089,4.095v42.396l0,0v-32.374c0-2.448,1.603-4.08,4.089-4.08
		c2.49,0,4.099,1.632,4.099,4.08v-10.022C202.68,400.122,201.072,398.472,198.581,398.472"/>
	<path fill="#15999E" d="M198.581,408.509c-2.486,0-4.089,1.632-4.089,4.08v32.374l0,0v-20.887c0-2.451,1.603-4.09,4.089-4.09
		c2.49,0,4.099,1.639,4.099,4.09v-11.487C202.68,410.141,201.072,408.509,198.581,408.509"/>
	<path fill="#B3C0BE" d="M171.483,444.316v0.002c0,9.811,6.004,14.254,15.43,14.305
		C177.488,458.572,171.483,454.126,171.483,444.316 M202.68,424.076v20.24l0,0c0,9.811-6.019,14.256-15.434,14.307
		c9.415-0.051,15.434-4.494,15.434-14.305V424.076L202.68,424.076"/>
	<path fill="#0F7376" d="M198.581,419.985c-2.486,0-4.089,1.639-4.089,4.09v20.887l0,0l0,0c0,4.877-2.729,7.074-7.413,7.074
		c-4.688,0-7.421-2.197-7.421-7.074v-20.426c0-2.449-1.604-4.1-4.092-4.1c-2.484,0-4.083,1.649-4.083,4.1h-0.001v19.779
		c0,9.811,6.004,14.256,15.43,14.307c0.056,0,0.109,0,0.167,0c0.056,0,0.109,0,0.167,0c9.415-0.051,15.434-4.496,15.434-14.307
		v-20.24C202.68,421.625,201.072,419.985,198.581,419.985"/>
</g>
<g>
	<path fill="#60CCCF" d="M249.801,378.126c-2.526,0-4.158,1.668-4.158,4.153v72.736c0,2.477,1.632,4.148,4.158,4.148
		c2.533,0,4.159-1.674,4.159-4.148l0,0c0,2.479-1.626,4.148-4.159,4.148c-2.526,0-4.158-1.676-4.158-4.148v-53.38
		c0-2.492,1.632-4.152,4.158-4.152c2.533,0,4.159,1.66,4.159,4.152v-19.356C253.96,379.794,252.334,378.126,249.801,378.126"/>
	<path fill="#24A3A8" d="M249.801,397.482c-2.526,0-4.158,1.66-4.158,4.152v53.38c0,2.477,1.632,4.148,4.158,4.148
		c2.533,0,4.159-1.674,4.159-4.148l0,0c0,2.479-1.626,4.148-4.159,4.148c-2.526,0-4.158-1.676-4.158-4.148V424.41
		c0-2.496,1.632-4.158,4.158-4.158c2.533,0,4.159,1.662,4.159,4.158v-22.773C253.96,399.143,252.334,397.482,249.801,397.482"/>
	<path fill="#197B7E" d="M249.801,420.25c-2.526,0-4.158,1.662-4.158,4.158v30.607c0,2.473,1.632,4.148,4.158,4.148
		c2.533,0,4.159-1.674,4.159-4.148v-30.607C253.96,421.912,252.334,420.25,249.801,420.25"/>
</g>
<g>
	<path fill="#60CCCF" d="M387.673,426.039L387.673,426.039v51.346c0,2.645,1.496,3.934,3.938,3.934c2.443,0,3.937-1.289,3.937-3.934
		v-10.592c0,2.643-1.491,3.936-3.937,3.936c-2.44,0-3.938-1.293-3.938-3.936V426.039 M415.223,398.147
		c-2.439,0-3.933,1.296-3.933,3.938v44.375v-32.904c0-2.64,1.491-3.928,3.933-3.928c2.446,0,3.947,1.289,3.947,3.928v-11.471
		C419.17,399.443,417.669,398.147,415.223,398.147"/>
	<path fill="#24A3A8" d="M387.673,426.039L387.673,426.039v40.754c0,2.643,1.496,3.936,3.938,3.936c2.443,0,3.937-1.293,3.937-3.936
		v-11.73c0,2.645-1.491,3.939-3.937,3.939c-2.44,0-3.938-1.299-3.938-3.939V426.039 M415.223,409.629
		c-2.439,0-3.933,1.288-3.933,3.928v32.904v-22.861c0-2.64,1.491-3.941,3.933-3.941c2.446,0,3.947,1.303,3.947,3.941v-10.042
		C419.17,410.918,417.669,409.629,415.223,409.629"/>
	<path fill="#197B7E" d="M415.223,419.656c-2.439,0-3.933,1.303-3.933,3.941v22.863h-0.106l-14.291-23.07
		c-0.9-1.504-2.396-2.145-4.087-2.145c-3.485,0-5.132,1.403-5.132,4.792h-0.001v29.021c0,2.645,1.496,3.939,3.938,3.939
		c2.443,0,3.937-1.299,3.937-3.939v-21.25h0.095l14.199,22.424c1.052,1.639,1.896,2.188,4.486,2.188
		c3.448,0,4.844-1.846,4.844-5.084v-29.738C419.17,420.959,417.669,419.656,415.223,419.656"/>
</g>
<g>
	<path fill="#60CCCF" d="M427.401,402.174c-0.001,0.036-0.001,0.071-0.001,0.107h0.001v21.396l0,0V402.174"/>
	<path fill="#60CCCF" d="M455.776,451.259c0.74,1.146,1.525,2.189,1.525,3.213C457.303,453.445,456.518,452.404,455.776,451.259
		 M448.433,423.041l-12.854,14.146l0,0L448.433,423.041 M431.494,378.111c-2.493,0-4.095,1.654-4.095,4.083h0.001v19.98
		c0.046-2.389,1.636-3.979,4.094-3.979c2.482,0,4.083,1.639,4.083,4.087v21.505l0,0v-41.593
		C435.577,379.765,433.979,378.111,431.494,378.111"/>
	<path fill="#24A3A8" d="M431.494,398.194c-2.458,0-4.048,1.591-4.094,3.979v21.505c0.046-2.381,1.636-3.969,4.094-3.969
		c2.482,0,4.083,1.636,4.083,4.077v-21.505C435.577,399.833,433.979,398.194,431.494,398.194"/>
	<path fill="#B3C0BE" d="M427.401,423.679c-0.001,0.035-0.001,0.072-0.001,0.107h0.001V423.679"/>
	<path fill="#44999B" d="M451.665,421.247c-1.438,0-2.285,0.801-3.232,1.793l0,0l-12.854,14.148v-0.002v-13.4l0,0v13.402
		l12.854-14.148C449.38,422.048,450.229,421.247,451.665,421.247c1.946,0,3.892,1.211,3.892,3.295l0,0
		C455.557,422.458,453.612,421.247,451.665,421.247"/>
	<path fill="#197B7E" d="M431.494,419.71c-2.458,0-4.048,1.588-4.094,3.969v0.107v30.545c0,2.441,1.602,4.086,4.095,4.086
		c2.482,0,4.083-1.646,4.083-4.086v-8.123l4.481-4.484l9.407,14.545c1.102,1.758,2.012,2.148,3.64,2.148
		c1.951,0,4.194-0.9,4.194-3.945c0-1.029-0.798-2.086-1.543-3.236l-9.931-15.098l8.38-8.813c0.694-0.691,1.348-1.537,1.348-2.781
		c0-2.084-1.943-3.295-3.891-3.295c-1.438,0-2.286,0.801-3.233,1.793l-12.854,14.148v-13.402
		C435.577,421.346,433.979,419.71,431.494,419.71"/>
</g>
</svg>
